# xmcd
#
# Track frame offsets: 
#        150
#        11783
#        32654
#        50893
#        64421
#        78756
#        101951
#        121577
#        133746
#        150917
#        167356
#        177833
#
# Disc length: 2605 seconds
#
# Revision: 0
# Processed by: cddbd v1.5.2PL0 Copyright (c) Steve Scherf et al.
# Submitted via: ExactAudioCopy v0.99pb4
#
DISCID=940a2b0c
DTITLE=May, Mackie and Rhonda - Meridian To Here
DYEAR=2008
DGENRE=Country
TTITLE0=The Pain of Loving You
TTITLE1=Midnight in Meridian
TTITLE2=The Curragh of Kildare
TTITLE3=But I do
TTITLE4=Carolina Moon
TTITLE5=Battle Above the Clouds
TTITLE6=The Lark
TTITLE7=How Blue
TTITLE8=Any Old Time
TTITLE9=Making Plans
TTITLE10=Cabin in the Mountains
TTITLE11=Summer of My Dreams
EXTD=
EXTT0=
EXTT1=
EXTT2=
EXTT3=
EXTT4=
EXTT5=
EXTT6=
EXTT7=
EXTT8=
EXTT9=
EXTT10=
EXTT11=
PLAYORDER=
